<?xml version="1.0" ?><svg viewBox="0 0 128 128" xmlns="http://www.w3.org/2000/svg"><defs><style>.cls-1{fill:#f2f2f2;}.cls-2{fill:#f7f7f7;}.cls-3{fill:#e6e6e6;}.cls-4{fill:#333;}.cls-5{fill:#d2423f;}</style></defs><title/><g data-name="09 Examination" id="_09_Examination"><path class="cls-1" d="M96.5,16a6,6,0,0,1,6,6v84a6,6,0,0,1-6,6h-65a6,6,0,0,1-6-6V32l16-16Z"/><path class="cls-2" d="M29,107V28.55L25.5,32v74a6,6,0,0,0,6.08,6A6,6,0,0,1,29,107Z"/><path class="cls-2" d="M99.87,17c-2.15-1.46,1.35-1-58.37-1l-1,1Z"/><path class="cls-3" d="M96.5,16H93a5.91,5.91,0,0,1,6,5.82v81.44a5.91,5.91,0,0,1-6,5.82c-70.17,0-65.53.12-66.79-.26A6,6,0,0,0,31.5,112h65a6,6,0,0,0,6-6V22A6,6,0,0,0,96.5,16Z"/><path class="cls-1" d="M35.5,32h-10l16-16V26A6,6,0,0,1,35.5,32Z"/><polygon class="cls-2" points="41.5 17.21 41.5 16 25.5 32 26.71 32 41.5 17.21"/><path class="cls-3" d="M32.65,32H35.5a6,6,0,0,0,6-6V23.15A8.85,8.85,0,0,1,32.65,32Z"/><path class="cls-4" d="M89,72H39a2,2,0,0,1,0-4H89A2,2,0,0,1,89,72Z"/><path class="cls-4" d="M89,84H39a2,2,0,0,1,0-4H89a2,2,0,0,1,0,4Z"/><path class="cls-4" d="M89,96H39a2,2,0,0,1,0-4H89A2,2,0,0,1,89,96Z"/><path class="cls-5" d="M88.14,43.81,81.4,27.92a2.8,2.8,0,0,0-5.16,0L69.52,43.82a2.18,2.18,0,0,0,.4,2.45h0a2.24,2.24,0,0,0,3.63-.71L75,42.07h7.64l1.47,3.53A2.2,2.2,0,1,0,88.14,43.81Zm-7.25-5.94H76.77l2.06-5Z"/><path class="cls-3" d="M41.5,26.83l.86-7.65a2.81,2.81,0,0,1,2.31-2.45L48.9,16H41.5Z"/><path class="cls-3" d="M36.33,32l-7.65.86a2.81,2.81,0,0,0-2.45,2.31L25.5,39.4V32Z"/></g></svg>