<?xml version="1.0" encoding="UTF-8"?>
<svg viewBox="0 0 217.1559 132.7086" xmlns="http://www.w3.org/2000/svg">
 <defs>
  <linearGradient id="b" x1="442.45" x2="449.52" y1="555.37" y2="690.73" gradientUnits="userSpaceOnUse">
   <stop stop-color="#96beff" offset="0"/>
   <stop stop-color="#09719f" offset="1"/>
  </linearGradient>
  <linearGradient id="a" x1="-139.4" x2="-111.85" y1="490.72" y2="632.14" gradientUnits="userSpaceOnUse">
   <stop stop-color="#fff" offset="0"/>
   <stop stop-color="#fff" stop-opacity="0" offset="1"/>
  </linearGradient>
 </defs>
 <g transform="matrix(.46448 0 0 .46448 -120.12 -243.89)" fill-rule="evenodd">
  <path d="m417.2 525.08c-32.479 0-61.353 15.489-79.625 39.5-3.9897-0.74567-8.1075-1.125-12.312-1.125-36.802 0-66.656 29.854-66.656 66.656s29.854 66.687 66.656 66.688c6.7515 0 13.263-1.0061 19.406-2.875 18.225 19.182 44.003 31.156 72.531 31.156 15.962 0 31.046-3.7461 44.438-10.406 13.391 6.6601 28.475 10.406 44.438 10.406 32.873 0 62.049-15.896 80.281-40.406 29.895-0.2526 54.062-24.609 54.062-54.562 0-27.609-20.531-50.427-47.156-54.031-17.151-30.44-49.781-51-87.188-51-15.965 0-31.045 3.7442-44.438 10.406-13.393-6.662-28.473-10.406-44.438-10.406z" fill="url(#b)"/>
  <path transform="translate(531.34 16.162)" d="m-116.16 516.81c-28.489 0-54.197 13.851-70.125 34.781-2.7691 3.6441-7.1882 5.3701-11.688 4.5312-3.2638-0.61-6.6458-0.9375-10.125-0.9375-29.078 0-54.719 25.64-54.719 54.719 0 3.8289 0.28827 5.1345 0.1875 3.5312 0.87184 13.728 10.88 25.148 24.375 27.812 32.071 6.3439 75.548 3.4797 127.22-9.3438 41.696-10.348 86.57-26.173 131.12-44 9.9847-4.0037 17.099-13 18.693-23.639s-2.5705-21.325-10.943-28.08c-14.971-12.054-34.361-19.375-55.125-19.375-13.951 0-27.418 3.3329-39.125 9.1562-3.3716 1.6771-7.2534 1.6771-10.625 0-11.707-5.8234-25.174-9.1562-39.125-9.1562z" fill="url(#a)"/>
 </g>
 <g transform="matrix(.46448 0 0 .46448 -80.307 -204.07)" fill-rule="evenodd">
  <path d="m417.2 525.08c-32.479 0-61.353 15.489-79.625 39.5-3.9897-0.74567-8.1075-1.125-12.312-1.125-36.802 0-66.656 29.854-66.656 66.656s29.854 66.687 66.656 66.688c6.7515 0 13.263-1.0061 19.406-2.875 18.225 19.182 44.003 31.156 72.531 31.156 15.962 0 31.046-3.7461 44.438-10.406 13.391 6.6601 28.475 10.406 44.438 10.406 32.873 0 62.049-15.896 80.281-40.406 29.895-0.2526 54.062-24.609 54.062-54.562 0-27.609-20.531-50.427-47.156-54.031-17.151-30.44-49.781-51-87.188-51-15.965 0-31.045 3.7442-44.438 10.406-13.393-6.662-28.473-10.406-44.438-10.406z" fill="url(#b)"/>
  <path transform="translate(531.34 16.162)" d="m-116.16 516.81c-28.489 0-54.197 13.851-70.125 34.781-2.7691 3.6441-7.1882 5.3701-11.688 4.5312-3.2638-0.61-6.6458-0.9375-10.125-0.9375-29.078 0-54.719 25.64-54.719 54.719 0 3.8289 0.28827 5.1345 0.1875 3.5312 0.87184 13.728 10.88 25.148 24.375 27.812 32.071 6.3439 75.548 3.4797 127.22-9.3438 41.696-10.348 86.57-26.173 131.12-44 9.9847-4.0037 17.099-13 18.693-23.639s-2.5705-21.325-10.943-28.08c-14.971-12.054-34.361-19.375-55.125-19.375-13.951 0-27.418 3.3329-39.125 9.1562-3.3716 1.6771-7.2534 1.6771-10.625 0-11.707-5.8234-25.174-9.1562-39.125-9.1562z" fill="url(#a)"/>
 </g>
</svg>
